<?xml version="1.0" encoding="UTF-8"?>
<svg xmlns="http://www.w3.org/2000/svg" viewBox="0 0 687.74 195.55">
  <g id="a" data-name="Baggrund">
    <rect x=".08" width="687.66" height="195.55" fill="#c00" stroke-width="0"/>
  </g>
  <g id="b" data-name="JUUL">
    <path d="m110.4,122.22l-11.84,24.44h55.94c11.69,0,22.32-4.53,30.02-11.82,3.98-3.77,7.19-8.29,9.36-13.31,2.03-4.69,3.15-9.82,3.15-15.19v-57.45s-25.48,0-25.48,0v57.23c0,2.13-.44,4.17-1.25,6.03-.86,2-2.14,3.8-3.74,5.32-3.1,2.93-7.37,4.75-12.06,4.75h-44.1Z" fill="#fff" stroke-width="0"/>
    <path d="m535.33,122.22c-4.7,0-8.97-1.82-12.06-4.75-1.6-1.52-2.88-3.32-3.74-5.32-.81-1.87-1.25-3.9-1.25-6.03v-4.2s0-53.04,0-53.04h-25.48s0,57.45,0,57.45c0,5.37,1.12,10.5,3.15,15.19,2.17,5.02,5.38,9.54,9.36,13.31,7.7,7.29,18.33,11.82,30.02,11.82h55.94s-11.84-24.44-11.84-24.44h-44.1Z" fill="#fff" stroke-width="0"/>
    <path d="m223.4,134.84c7.7,7.29,18.33,11.82,30.02,11.82h41.67c11.69,0,22.32-4.53,30.02-11.82,3.98-3.77,7.19-8.29,9.36-13.31,2.03-4.69,3.15-9.82,3.15-15.19v-57.45s-25.48,0-25.48,0c0,0,0,57.23,0,57.23,0,2.13-.44,4.17-1.25,6.03-.86,2-2.14,3.8-3.74,5.32-3.1,2.93-7.37,4.75-12.06,4.75h-41.67c-4.7,0-8.97-1.82-12.06-4.75-1.6-1.52-2.88-3.32-3.74-5.32-.81-1.87-1.25-3.9-1.25-6.03v-7.77s0-49.46,0-49.46h-25.48v57.45c0,5.37,1.12,10.5,3.15,15.19,2.17,5.02,5.38,9.54,9.36,13.31Z" fill="#fff" stroke-width="0"/>
    <path d="m365.09,134.84c7.7,7.29,18.33,11.82,30.02,11.82h41.67c11.69,0,22.32-4.53,30.02-11.82,3.98-3.77,7.19-8.29,9.36-13.31,2.03-4.69,3.15-9.82,3.15-15.19v-57.45s-25.48,0-25.48,0c0,0,0,57.23,0,57.23,0,2.13-.44,4.17-1.25,6.03-.86,2-2.14,3.8-3.74,5.32-3.1,2.93-7.37,4.75-12.06,4.75h-41.67c-4.7,0-8.97-1.82-12.06-4.75-1.6-1.52-2.88-3.32-3.74-5.32-.81-1.87-1.25-3.9-1.25-6.03v-7.77s0-49.46,0-49.46h-25.48v57.45c0,5.37,1.12,10.5,3.15,15.19,2.17,5.02,5.38,9.54,9.36,13.31Z" fill="#fff" stroke-width="0"/>
  </g>
</svg>